<svg width="24" height="25" viewBox="0 0 24 25" fill="none" xmlns="http://www.w3.org/2000/svg">
<path fill-rule="evenodd" clip-rule="evenodd" d="M16.552 22.633C15.112 22.58 11.031 22.016 6.757 17.743C2.484 13.469 1.921 9.389 1.867 7.948C1.787 5.752 3.469 3.619 5.412 2.786C5.64598 2.68497 5.9022 2.6465 6.15553 2.67438C6.40886 2.70225 6.65059 2.79551 6.857 2.945C8.457 4.111 9.561 5.875 10.509 7.262C10.7176 7.56673 10.8068 7.93755 10.7596 8.3038C10.7123 8.67005 10.532 9.00613 10.253 9.248L8.302 10.697C8.20774 10.7651 8.14139 10.865 8.11528 10.9783C8.08916 11.0916 8.10505 11.2105 8.16 11.313C8.602 12.116 9.388 13.312 10.288 14.212C11.188 15.112 12.441 15.95 13.3 16.442C13.4077 16.5025 13.5345 16.5194 13.6543 16.4892C13.774 16.4591 13.8777 16.3842 13.944 16.28L15.214 14.347C15.4475 14.0368 15.7919 13.8291 16.1752 13.7672C16.5584 13.7053 16.9508 13.7941 17.27 14.015C18.677 14.989 20.319 16.074 21.521 17.613C21.6826 17.8209 21.7854 18.0684 21.8187 18.3296C21.8519 18.5909 21.8144 18.8562 21.71 19.098C20.873 21.051 18.755 22.714 16.552 22.633Z" fill="#505F6B"/>
</svg>
